<svg height="504pt" viewBox="0 0 504.21799 504" width="504pt" xmlns="http://www.w3.org/2000/svg"><path d="m8.988281 226.742188h.371094c2.222656-.097657 4.320313-1.074219 5.824219-2.714844 1.507812-1.644532 2.296875-3.816406 2.199218-6.042969-.460937-10.691406-.605468-20.753906-.527343-30.355469 0-.070312.082031-.128906.109375-.203125 2.945312-8.40625 9.320312-15.164062 17.539062-18.601562 11.441406-3.273438 24.996094 4.929687 34.835938 12.878906 3.675781 13.125 6.890625 21.660156 7.351562 22.878906 1.25 3.238281 4.367188 5.375 7.839844 5.371094 1.027344.003906 2.046875-.1875 3.003906-.5625 4.324219-1.65625 6.488282-6.507813 4.835938-10.835937-3.265625-9.085938-6.066406-18.328126-8.394532-27.699219.355469-.914063.542969-1.886719.554688-2.867188 0-8.050781 2.300781-32.785156 12.253906-40.550781 1.832032-1.429688 4.09375-2.199219 6.421875-2.191406 1.757813 7.328125 4.230469 14.460937 7.386719 21.304687 1.335938 2.683594 4.003906 4.453125 7 4.636719 2.992188.183594 5.859375-1.242188 7.515625-3.742188 1.65625-2.503906 1.851563-5.699218.515625-8.382812-2.472656-5.488281-4.4375-11.1875-5.875-17.03125 6.828125-3.476562 14.710938-4.261719 22.089844-2.199219 5.789062 3.464844 9.519531 9.53125 10.007812 16.257813.269532 1.28125.847656 2.472656 1.675782 3.484375 1.429687 9 3.777343 17.828125 7.007812 26.347656 1.285156 19.695313 1.160156 39.460937-.375 59.140625-11.382812 12.378906-35.546875 16.289062-65.585938 10.273438-13.351562-3.207032-27.433593-.707032-38.863281 6.902343-11.429687 7.605469-19.171875 19.632813-21.371093 33.183594-.664063 3.328125.742187 6.730469 3.5625 8.617187 2.820312 1.886719 6.5 1.894532 9.324218.011719 12.5625-7.816406 28.476563-7.816406 41.042969 0 14.371094 9.601563 27.582031 17.242188 41.472656 17.242188 4.378907-.003907 8.722657-.769531 12.839844-2.257813-10.304687 20.890625-24.675781 33.292969-42.90625 36.929688-39.285156 6.585937-72.566406 32.613281-88.425781 69.152344-13.222656 30.9375-10.398438 66.394531 7.554687 94.847656 2.117188 3.210937 6.148438 4.574218 9.777344 3.304687 3.632813-1.269531 5.9375-4.847656 5.589844-8.675781-.292969-3.453125-6.066407-84.777344 93.640625-100.085938 31.003906-4.097656 58.445312-22.105468 74.550781-48.917968 4.773437 19.261718 2.695313 39.585937-5.878906 57.480468-11.050781 23.097657-35.839844 50.042969-69.3125 50.042969h-.167969c-3.914062-.007812-7.3125 2.695313-8.1875 6.511719-.878906 3.8125.996094 7.726562 4.519531 9.433594 13.640625 6.832031 28.652344 10.480468 43.90625 10.675781 7.671875.035156 15.308594-1.054687 22.664063-3.230469 17.078125-5.550781 32.101562-16.097656 43.125-30.273437 5.695312-7.117188 10.683594-14.769531 14.890625-22.855469 2.652343 18.734375 3.699219 47.839844-10.585938 66.917969-1.902343 2.539062-2.210937 5.933593-.800781 8.773437s4.304688 4.640625 7.472656 4.65625c.402344.003906.800782-.027344 1.195313-.082031 39.964843-7.351563 68.222656-43.277344 65.953125-83.851563-.058594-9.675781-.617188-19.34375-1.679688-28.964843 14.125 8.902343 29.296875 16.019531 45.167969 21.191406 12.496094 4.445313 24.746094 9.5625 36.695313 15.328125 24.902343 11.238281 37.507812 39.292969 29.375 65.375-1.234376 3.890625.503906 8.101562 4.121093 9.988281 3.617188 1.886719 8.066407.898438 10.542969-2.339843 20.859375-27.816407 28.136719-55.917969 21.613281-83.539063-8.074219-34.230469-37.667969-65.65625-83.320312-88.476563-11.496094-6.332031-20.410157-16.496093-25.179688-28.722656 13.917969.992188 27.886719-1.113281 40.890625-6.167968 20.84375-6.949219 42.808594 7.277343 43.050782 7.410156 2.574218 1.699218 5.875 1.851562 8.59375.390625 2.71875-1.457031 4.417968-4.289063 4.425781-7.375-.507813-18.984375-12.882813-35.605469-30.921875-41.539063-8.007813-2.164062-16.242188-3.371094-24.535156-3.589844-25.558594-1.847656-49.765626-3.660156-53.195313-38.335937.5625-13.132813 1.675781-24.96875 2.792969-34.050781 5.789062-11.847656 9.730468-24.511719 11.691406-37.550782.519531-.851562.886719-1.785156 1.082031-2.761718.492188-6.710938 4.21875-12.761719 9.988281-16.21875 7.378907-2.0625 15.265626-1.277344 22.09375 2.199218-1.445312 5.839844-3.410156 11.535157-5.875 17.023438-1.945312 4.125-.238281 9.050781 3.84375 11.089844 4.082032 2.035156 9.042969.441406 11.171876-3.59375 3.160156-6.839844 5.636718-13.976563 7.386718-21.304688 2.324219-.003906 4.582032.769532 6.417969 2.191406 9.957031 7.765626 12.246094 32.5 12.265625 40.550782.019531.984375.214844 1.960937.578125 2.878906-2.328125 9.367188-5.132813 18.613281-8.394531 27.695312-1.65625 4.328126.503906 9.175782 4.828125 10.835938.960937.371094 1.984375.554688 3.011719.546875 3.472656 0 6.585937-2.140625 7.832031-5.378906.46875-1.21875 3.675781-9.746094 7.34375-22.847657 13.605469-10.988281 25.617187-15.503906 34.765625-12.933593 8.273437 3.417969 14.691406 10.214843 17.625 18.675781 0 .066406.078125.117188.101562.183594.085938 9.585937-.066406 19.65625-.527344 30.332031-.097656 2.230469.695313 4.40625 2.203126 6.046875 1.507812 1.644531 3.609374 2.617188 5.835937 2.710938h.371094c4.496093.003906 8.199219-3.539063 8.394531-8.035157 8.585938-197.957031-78.589844-217.683593-82.300781-218.421875-.277344-.015625-.558594-.015625-.839844 0-.273437-.074218-.554687-.128906-.835937-.167968-.285157.039062-.566407.09375-.839844.167968-.570313.046875-1.132813.160156-1.679688.335938-.488281.152344-.960937.347656-1.410156.585937-.964844.53125-1.820312 1.234375-2.519531 2.082031-.265625.335938-.503907.691407-.710938 1.066407-.363281.59375-.648437 1.230469-.839843 1.898437-.050782.183594-.183594.335938-.226563.527344-.042969.195312 0 .410156 0 .613281-.070313.367188-.113281.742188-.136719 1.117188 1.210938 16.546875-4.839844 32.804687-16.574218 44.535156-19.171876 17.230469-49.203126 14.328125-49.664063 14.269531-.566406-.007812-1.128906.050782-1.679687.167969-16.183594-39.753906-50.820313-67.367187-90.96875-67.367187-40.144532 0-74.808594 27.632812-90.96875 67.398437-.742188-.175781-1.503907-.242187-2.265626-.199219-.316406 0-30.441406 3.011719-49.664062-14.269531-11.734375-11.730469-17.789062-27.988281-16.578125-44.535156 0-2.515625-1.125-4.894531-3.070313-6.488281-1.945312-1.617188-4.523437-2.257813-7-1.738282-3.683593.738282-90.851562 20.464844-82.253906 218.421875.191406 4.496094 3.894532 8.039063 8.390625 8.035157zm88.601563 43.375c-11.363282-7.757813-25.359375-10.632813-38.859375-7.988282 7.773437-9.671875 20.574219-13.757812 32.515625-10.375 21.988281 5.675782 45.21875 4.125 66.257812-4.425781-1.296875 8.691406-3.105468 17.292969-5.414062 25.769531-18.878906 17.8125-30.226563 13.234375-54.507813-2.980468zm291.253906-4.617188c6.890625.183594 13.742188 1.113281 20.429688 2.78125 5.640624 1.757812 10.5625 5.289062 14.03125 10.070312-12.648438-4.449218-26.386719-4.742187-39.210938-.839843-21.1875 7.078125-36.019531 7.789062-41.777344 2.03125-.15625-.160157-.375-.21875-.542968-.359375-2.179688-9.578125-3.636719-19.304688-4.347657-29.101563 14.554688 12.675781 35.320313 14.261719 51.367188 15.417969zm97.429688-106.8125c-3.585938-2.722656-7.644532-4.761719-11.96875-6.019531-11.460938-2.722657-23.53125-.878907-33.65625 5.144531 7.972656-38.917969 12.238281-94.441406-13.429688-136.222656l.082031-.691406c17.097657 9.914062 52.257813 41.816406 58.972657 137.789062zm-65.753907-113c9.144531 26.378906 11.804688 54.578125 7.746094 82.203125-2.425781-5.28125-6.023437-9.9375-10.515625-13.621094-3.953125-3.054687-8.679688-4.941406-13.648438-5.457031 1.769532-13.644531 1.421876-27.480469-1.023437-41.019531.90625-.730469 1.855469-1.332031 2.738281-2.121094 6.199219-5.601563 11.203125-12.398437 14.703125-19.984375zm-69.75 38.648438c12.617188.019531 25.113281-2.457032 36.765625-7.292969 1.125 9.359375 1.125 18.820312 0 28.175781-10.179687-4.28125-21.605468-4.542969-31.972656-.738281-1.023438.554687-2.015625 1.164062-2.972656 1.832031-.613282-7.425781-1.847656-14.789062-3.691406-22.007812.628906.015624 1.191406.03125 1.871093.03125zm-98.371093-67.429688c46.28125 0 83.933593 45.179688 83.933593 100.71875.101563 18.3125-4.152343 36.386719-12.414062 52.726562-.417969.863282-.6875 1.789063-.796875 2.738282 0 .101562-.074219.175781-.082032.277344-.90625 7.367187-1.679687 15.570312-2.34375 24.207031-.722656 1.207031-1.117187 2.578125-1.148437 3.984375 0 3.226562.175781 6.203125.410156 9.101562-2.097656 50.636719 4.761719 111.949219 46.164063 132.707032 41.128906 20.554687 67.578125 48.019531 74.5 77.320312 3.070312 13.289062 2.222656 27.179688-2.433594 39.996094-4.761719-21.441406-19.359375-39.382813-39.382812-48.40625-12.484376-6.003906-25.285157-11.328125-38.347657-15.949219-22.914062-8.558594-42.722656-16.0625-54.558593-31.632813-2.695313-16.726562-6.085938-33.773437-9.457032-50.5625-7.554687-37.855468-14.765625-73.609374-10.667968-94.105468.730468-4.464844-2.203126-8.707032-6.636719-9.59375-4.4375-.886719-8.777344 1.898437-9.816407 6.300781-4.757812 23.796875 2.726563 61.148437 10.667969 100.722656 3.5 17.449219 7.050781 35.195313 9.753907 52.417969v.234375c2.800781 16.417969 4.34375 33.027344 4.625 49.679687 0 36.007813-18.558594 53.003907-33.421876 60.851563 11.992188-35.25.132813-77.804687-.480468-79.945313-.339844-1.15625-.929688-2.222656-1.730469-3.125 2.792969-8.445312 4.960937-17.089843 6.480469-25.859374 2.699218-15.160157 3.28125-30.625 1.730468-45.945313-1.683593-10.769531-4.5625-21.316406-8.585937-31.449219-3.789063-9.363281-6.425781-19.152344-7.855469-29.152344-1.085937-12.417968-.199218-24.929687 2.625-37.070312 1.773438-8.003906 4.152344-15.859375 7.109375-23.503906 1.578125-4.308594-.597656-9.089844-4.882812-10.726563-4.289063-1.640625-9.097657.46875-10.796875 4.734375-3.261719 8.445313-5.878906 17.125-7.828125 25.96875-3.203125 13.863282-4.191407 28.148438-2.921875 42.320313 1.539062 11.347656 4.472656 22.464843 8.738281 33.09375 3.585937 8.960937 6.175781 18.289062 7.730469 27.816406 1.367187 13.734375.820312 27.59375-1.621094 41.179687-3.804688 24.296876-13.675781 47.242188-28.707031 66.710938-8.949219 11.511719-21.097657 20.132812-34.925781 24.777344-8.097657 2.335937-16.574219 3.058594-24.953126 2.132812 22.761719-10.859375 40.992188-29.359375 51.519532-52.277344 11.1875-23.367187 12.765625-46.289062 5.28125-76.628906-1.132813-4.644531-2.199219-9.367187-3.125-14.269531-1.675782-8.042969-2.996094-16.601563-4.070313-26.1875-3.054687-30.15625-2.773437-60.558594.839844-90.648437.484375-3.015626-.707031-6.058594-3.113281-7.9375-2.40625-1.882813-5.640625-2.3125-8.453125-1.121094-2.8125 1.195312-4.753907 3.820312-5.070313 6.859375-3.816406 31.4375-4.097656 63.203125-.839844 94.703125 1.015626 9.054687 2.300782 17.195312 3.8125 24.875-11.386718 31.019531-38.898437 53.269531-71.613281 57.917968-71.476562 11.027344-95.820312 53.230469-103.96875 84.066407-3.054687-16.976563-1.148437-34.476563 5.488281-50.402344 13.78125-31.320313 42.46875-53.550781 76.238282-59.074219 30.667968-6.140625 52.289062-30.214844 64.34375-71.402344.710937-1.222656 1.097656-2.613281 1.117187-4.027343 4.152344-15.597657 6.90625-31.53125 8.226563-47.617188 1.863281-21.691406 2.070312-43.492187.621094-65.214843 0-1.066407-.203126-2.125-.597657-3.117188-5.457031-13.839844-8.253906-28.589844-8.242187-43.46875 0-55.539062 37.652344-100.71875 83.933594-100.71875zm-96.523438 67.390625c-1.867188 7.339844-3.109375 14.824219-3.710938 22.375-1.125-.8125-2.308593-1.546875-3.542968-2.191406-10.363282-3.804688-21.789063-3.542969-31.96875.738281-1.125-9.335938-1.125-18.773438 0-28.109375 12.425781 5.117187 25.789062 7.566406 39.222656 7.1875zm-57.496094-18.667969c.890625.789063 1.8125 1.476563 2.726563 2.207032-2.425781 13.511718-2.765625 27.3125-1.003907 40.925781-4.96875.515625-9.695312 2.410156-13.648437 5.464843-4.496094 3.695313-8.089844 8.371094-10.507813 13.664063-4.042968-27.601563-1.386718-55.769531 7.746094-82.128906 3.511719 7.539062 8.507813 14.296875 14.6875 19.867187zm-21.5625-44.703125c0 .25.109375.46875.132813.710938-25.625 41.777343-21.367188 97.257812-13.402344 136.167969-10.117187-6.03125-22.1875-7.875-33.640625-5.136719-4.335938 1.253906-8.402344 3.300781-11.996094 6.035156 6.707032-95.894531 41.816406-127.832031 58.90625-137.777344zm0 0"/><path d="m198.285156 150.359375c4.242188 2.148437 8.929688 3.269531 13.683594 3.265625 11.117188-.765625 21.597656-5.457031 29.578125-13.234375 1.734375-1.722656 2.632813-4.113281 2.460937-6.554687-.171874-2.4375-1.398437-4.679688-3.359374-6.136719l-33.574219-25.183594c-1.84375-1.382813-4.179688-1.945313-6.453125-1.558594-2.273438.390625-4.285156 1.699219-5.566406 3.617188-1.214844 1.828125-11.75 18.230469-8.074219 32.164062 1.574219 5.984375 5.710937 10.972657 11.304687 13.621094zm6.640625-28.429687 16.46875 12.347656c-4.734375 2.824218-10.53125 3.21875-15.605469 1.058594-1.269531-.480469-2.226562-1.542969-2.574218-2.855469-.457032-3.621094.136718-7.296875 1.710937-10.589844zm0 0"/><path d="m292.832031 153.582031c4.753907.003907 9.441407-1.113281 13.679688-3.265625 5.582031-2.640625 9.71875-7.609375 11.304687-13.578125 3.703125-13.933593-6.855468-30.335937-8.074218-32.164062-1.277344-1.917969-3.292969-3.226563-5.566407-3.617188-2.273437-.386719-4.605469.175781-6.453125 1.558594l-33.574218 25.183594c-1.945313 1.457031-3.160157 3.691406-3.332032 6.117187-.175781 2.429688.714844 4.808594 2.433594 6.53125 7.980469 7.777344 18.464844 12.46875 29.582031 13.234375zm7.03125-31.683593c1.570313 3.269531 2.167969 6.921874 1.730469 10.523437-.34375 1.320313-1.308594 2.390625-2.585938 2.871094-5.070312 2.160156-10.871093 1.769531-15.601562-1.054688zm0 0"/></svg>