<svg height="512pt" viewBox="-3 0 512 512" width="512pt" xmlns="http://www.w3.org/2000/svg"><path d="m169.4375 231.546875c-15.003906 19.15625-47.136719 22.070313-79.269531 15.625-44.136719-8.828125-52.964844 35.3125-52.964844 35.3125 16.191406-10.164063 36.769531-10.164063 52.964844 0 26.304687 17.566406 43.960937 26.394531 70.179687.441406v-.089843c.167969-.089844.316406-.210938.441406-.351563zm0 0" fill="#4c8056"/><path d="m328.511719 203.035156c0 70.621094 61.792969 52.964844 88.277343 61.792969 15.347657 5.066406 25.917969 19.15625 26.480469 35.308594 0 0-26.480469-17.652344-52.964843-8.828125-26.480469 8.828125-44.136719 8.828125-52.964844 0zm0 0" fill="#4c8056"/><path d="m112.238281 119.171875c-34.164062-8.5625-39.8125 48.992187-39.902343 52.878906-5.351563-21.894531-21.398438-52.417969-20.242188-83.773437.996094-25.539063 16.886719-51.75 30.304688-73.269532 1.871093 17.347657 11.222656 33.015626 25.601562 42.902344-2.773438 20.945313 3.441406 45.371094 4.238281 61.261719zm0 0" fill="#7d6599"/><path d="m160.789062 114.757812c-.015624 4.214844.1875 8.429688.617188 12.625-11.035156-29.21875-45.859375-16.898437-49.167969-8.210937-6.496093-19.75-7.953125-40.808594-4.238281-61.261719 18.0625 10.695313 39.027344 15.453125 59.9375 13.59375-4.757812 13.921875-7.171875 28.539063-7.148438 43.253906zm0 0" fill="#3d324c"/><path d="m394.640625 119.304688c34.160156-8.5625 39.8125 48.992187 39.898437 52.878906 5.175782-21.1875 24.136719-48.269532 23.449219-78.523438-.621093-26.5625-19.519531-56.109375-33.546875-78.519531-1.871094 17.347656-11.21875 33.015625-25.601562 42.902344 2.808594 20.945312-3.398438 45.347656-4.199219 61.261719zm0 0" fill="#7d6599"/><path d="m346.089844 114.890625c.015625 4.214844-.191406 8.429687-.621094 12.625 11.035156-29.21875 45.90625-16.898437 49.171875-8.210937 6.492187-19.75 7.949219-40.808594 4.238281-61.261719-18.066406 10.695312-39.03125 15.453125-59.941406 13.59375 4.757812 13.921875 7.175781 28.539062 7.152344 43.253906zm0 0" fill="#3d324c"/><path d="m438.855469 512c9.871093-31.59375-5.246094-65.601562-35.308594-79.449219-40.785156-20.390625-81.480469-25.070312-102.136719-54.289062l-97.191406-49.433594c-13.238281 32.484375-37.871094 61.441406-83.15625 68.414063-114.757812 17.65625-105.929688 114.757812-105.929688 114.757812-35.308593-52.964844-8.828124-141.242188 79.449219-158.898438 33.457031-6.707031 51.640625-36.101562 61.351563-70.175781v-.089843c4.65625-16.765626 7.703125-33.941407 9.09375-51.289063 1.917968-22.519531 2.121094-45.15625.617187-67.707031v-.089844c-4.636719-11.605469-7.550781-23.828125-8.652343-36.28125v-.085938c-.429688-4.195312-.632813-8.410156-.617188-12.625-.023438-14.714843 2.390625-29.332031 7.148438-43.253906 14.390624-41.929687 49.257812-71.503906 89.953124-71.503906 53.671876 0 97.105469 51.375 97.105469 114.757812.117188 20.667969-4.695312 41.0625-14.035156 59.5v.085938c-6.269531 50.757812-10.242187 144.507812 40.515625 169.933594 70.621094 35.308594 114.761719 97.101562 61.792969 167.722656zm0 0" fill="#71c285"/><path d="m200.511719 105.929688 35.3125 26.484374s-17.65625 17.65625-35.3125 8.828126c-17.65625-8.828126 0-35.3125 0-35.3125zm0 0" fill="#cc4b4c"/><path d="m306.441406 105.929688-35.308594 26.484374s17.65625 17.65625 35.308594 8.828126c17.65625-8.828126 0-35.3125 0-35.3125zm0 0" fill="#cc4b4c"/><path d="m235.824219 208.550781c-8.75 97.765625 63.664062 260.582031 8.824219 303.449219 0 0 61.792968-8.828125 61.792968-79.449219 0-58.003906-20.847656-142.820312-23.398437-195.722656-.441407-9.65625-4.839844-18.703125-12.164063-25.011719-7.324218-6.304687-16.925781-9.3125-26.539062-8.3125-4.871094.597656-8.253906 2.097656-8.515625 5.046875zm0 0" fill="#4c8056"/><path d="m253.476562 203.632812c-3.277343 8.265626-5.902343 16.769532-7.855468 25.441407-3.15625 13.679687-4.140625 27.769531-2.914063 41.757812 2.207031 22.242188 14.566407 41.664063 17.304688 63.910157 1.53125 15.28125.9375 30.699218-1.765625 45.816406-4.25 27.050781-15.273438 52.589844-32.046875 74.238281-10.507813 13.511719-24.796875 23.589844-41.046875 28.953125-21.363282 5.515625-44.011719 2.90625-63.558594-7.324219 35.929688.085938 66.117188-26.484375 81.039062-57.644531 10.863282-23.417969 12.625-50.039062 4.941407-74.683594-1.234375-5.03125-2.382813-10.148437-3.355469-15.269531-1.941406-9.359375-3.351562-18.890625-4.414062-28.335937-1.898438-18.003907-2.628907-36.105469-2.1875-54.203126.480468-24.03125 20.101562-43.257812 44.136718-43.253906 3.917969-.253906 7.851563-.050781 11.722656.597656zm0 0" fill="#7ed09e"/><g fill="#3d324c"><path d="m72.335938 172.050781v.175781c-51.023438-42.109374-69.386719 8.210938-70.972657 12.800782 2.292969-169.492188 79.976563-185.027344 79.976563-185.027344-.027344 5.023438.328125 10.039062 1.058594 15.007812-29.925782 47.933594-19.773438 117.316407-10.0625 157.042969zm0 0"/><path d="m434.539062 172.183594v.175781c51.023438-42.109375 69.386719 8.207031 70.976563 12.800781-2.296875-169.492187-79.980469-185.027344-79.980469-185.027344.027344 5.023438-.324218 10.039063-1.058594 15.007813 29.925782 47.933594 19.773438 117.316406 10.0625 157.042969zm0 0"/></g></svg>