<svg height="512pt" viewBox="-76 0 512 512" width="512pt" xmlns="http://www.w3.org/2000/svg"><path d="m101.167969 512h157.664062c55.785157 0 101.167969-45.382812 101.167969-101.167969v-309.664062c0-55.785157-45.382812-101.167969-101.167969-101.167969h-157.664062c-55.785157 0-101.167969 45.382812-101.167969 101.167969v309.664062c0 55.785157 45.382812 101.167969 101.167969 101.167969zm-71.167969-410.832031c0-39.242188 31.925781-71.167969 71.167969-71.167969h157.664062c39.242188 0 71.167969 31.925781 71.167969 71.167969v309.664062c0 39.242188-31.925781 71.167969-71.167969 71.167969h-157.664062c-39.242188 0-71.167969-31.925781-71.167969-71.167969zm0 0"/><path d="m150 269.402344v62.597656h30v-40.058594c15.09375 13.246094 34.222656 20.078125 53.488281 20.078125 15.554688 0 31.191407-4.445312 44.832031-13.539062l-16.640624-24.960938c-20.148438 13.429688-47.195313 10.75-64.316407-6.371093l-2.378906-2.378907c16.609375-6.78125 29.550781-17.492187 36.226563-23.769531h38.789062v-30h-38.789062c-10.3125-9.695312-35.574219-30-66.210938-30-39.386719 0-69.894531 33.566406-71.175781 34.992188l-8.960938 10.007812 8.960938 10.007812c1.113281 1.238282 24.289062 26.722657 56.175781 33.394532zm15-58.402344c14.710938 0 28.421875 8.023438 37.550781 14.988281-9.148437 6.964844-22.890625 15.011719-37.550781 15.011719-14.710938 0-28.425781-8.027344-37.550781-14.984375 9.144531-6.964844 22.890625-15.015625 37.550781-15.015625zm0 0"/><path d="m93.824219 155.992188 22.320312 20.046874c.226563-.25 23-25.039062 48.855469-25.039062s48.628906 24.789062 48.824219 25.007812l4.472656 4.992188h51.703125v-30h-38.785156c-10.316406-9.695312-35.582032-30-66.214844-30-39.386719 0-69.894531 33.566406-71.175781 34.992188zm0 0"/><path d="m90 60h30v30h-30zm0 0"/><path d="m210 60h30v30h-30zm0 0"/><path d="m60 362h240v30h-240zm0 0"/><path d="m90 422h180v30h-180zm0 0"/></svg>