<?xml version="1.0" encoding="UTF-8" standalone="no"?>
<svg
   xmlns:dc="http://purl.org/dc/elements/1.1/"
   xmlns:cc="http://creativecommons.org/ns#"
   xmlns:rdf="http://www.w3.org/1999/02/22-rdf-syntax-ns#"
   xmlns:svg="http://www.w3.org/2000/svg"
   xmlns="http://www.w3.org/2000/svg"
   xmlns:sodipodi="http://sodipodi.sourceforge.net/DTD/sodipodi-0.dtd"
   xmlns:inkscape="http://www.inkscape.org/namespaces/inkscape"
   version="1.0"
   viewBox="0 0 948.55288 620"
   preserveAspectRatio="xMidYMid meet"
   id="svg2"
   inkscape:version="0.92.2 (5c3e80d, 2017-08-06)"
   width="948.55292"
   height="620"
   sodipodi:docname="Cthulhu_symbol_JH.svg"
   inkscape:export-filename="/media/juhele/data_2TB/_GRAFIKA/Cthulhu/Cthulhu_symbol.svg.png"
   inkscape:export-xdpi="96"
   inkscape:export-ydpi="96">
  <title
     id="title5187">Cthulhu symbol</title>
  <defs
     id="defs20" />
  <sodipodi:namedview
     pagecolor="#ffffff"
     bordercolor="#666666"
     borderopacity="1"
     objecttolerance="10"
     gridtolerance="10"
     guidetolerance="10"
     inkscape:pageopacity="0"
     inkscape:pageshadow="2"
     inkscape:window-width="1920"
     inkscape:window-height="1140"
     id="namedview18"
     showgrid="false"
     fit-margin-top="10"
     fit-margin-left="5"
     fit-margin-right="5"
     fit-margin-bottom="10"
     inkscape:zoom="0.36757093"
     inkscape:cx="602.9264"
     inkscape:cy="117.04341"
     inkscape:window-x="0"
     inkscape:window-y="0"
     inkscape:window-maximized="1"
     inkscape:current-layer="svg2" />
  <g
     style="fill:#000000;stroke:none"
     transform="matrix(0.20655,0,0,0.20655,-155.12348,318.31087)"
     id="head" />
  <metadata
     id="metadata16">
    <rdf:RDF>
      <cc:Work>
        <dc:format>image/svg+xml</dc:format>
        <dc:type
           rdf:resource="http://purl.org/dc/dcmitype/StillImage" />
        <cc:license
           rdf:resource="http://creativecommons.org/publicdomain/zero/1.0/" />
        <dc:publisher>
          <cc:Agent
             rdf:about="http://openclipart.org/">
            <dc:title>Openclipart</dc:title>
          </cc:Agent>
        </dc:publisher>
        <dc:title>Cthulhu symbol</dc:title>
        <dc:creator>
          <cc:Agent>
            <dc:title>Jan Helebrant</dc:title>
          </cc:Agent>
        </dc:creator>
        <dc:subject>
          <rdf:Bag>
            <rdf:li>myth</rdf:li>
            <rdf:li>fantasy</rdf:li>
            <rdf:li>legend</rdf:li>
            <rdf:li>ancient</rdf:li>
            <rdf:li>wings</rdf:li>
            <rdf:li>octopus</rdf:li>
            <rdf:li>evil</rdf:li>
            <rdf:li>Lovecraft</rdf:li>
            <rdf:li>monster</rdf:li>
            <rdf:li>tentacles</rdf:li>
            <rdf:li>underwater</rdf:li>
            <rdf:li>ocean</rdf:li>
            <rdf:li>seal</rdf:li>
            <rdf:li>remix+232196</rdf:li>
            <rdf:li>remix+193107</rdf:li>
            <rdf:li>remix+277536</rdf:li>
          </rdf:Bag>
        </dc:subject>
        <dc:description>Simplified symbol od Cthulhu, fictional ancient evil monster, described by H. P. Lovecraft as &quot;A monster of vaguely anthropoid outline, but with an octopus-like head whose face was a mass of feelers, a scaly, rubbery-looking body, prodigious claws on hind and fore feet, and long, narrow wings behind.&quot; ( https://en.wikipedia.org/wiki/Cthulhu )</dc:description>
      </cc:Work>
      <cc:License
         rdf:about="http://creativecommons.org/publicdomain/zero/1.0/">
        <cc:permits
           rdf:resource="http://creativecommons.org/ns#Reproduction" />
        <cc:permits
           rdf:resource="http://creativecommons.org/ns#Distribution" />
        <cc:permits
           rdf:resource="http://creativecommons.org/ns#DerivativeWorks" />
      </cc:License>
    </rdf:RDF>
  </metadata>
  <g
     inkscape:groupmode="layer"
     id="layer1"
     inkscape:label="body"
     transform="translate(-8.743849,313.54565)" />
  <g
     id="g5166"
     transform="matrix(2.3632439,0,0,2.3632439,-27.480064,-90.593935)">
    <path
       id="path6"
       d="m 205.46094,66.007812 c -2.44754,0.04597 -4.84666,0.189747 -7.13867,0.394532 -17.78898,3.62366 -28.02437,20.338067 -29.37696,37.037106 0.83961,21.53581 -7.79003,16.26015 -8.22265,36.90039 -3.33674,8.55594 -5.67899,23.62137 -15.29883,28.47461 -11.79858,10.72353 -32.29601,-19.35146 -49.527346,-16.74609 -11.132042,1.68316 -20.980702,5.65627 -27.367187,19.79492 -4.686479,10.37511 -2.483854,35.98173 -3.949219,44.50586 -0.558189,3.24703 -0.494077,10.09548 2.033203,17.07422 1.867148,5.15588 6.17209,11.31083 6.90625,11.33008 1.087107,0.0285 -3.063626,-9.8615 -2.992187,-17.95899 0.0612,-6.93734 4.292038,-11.82327 5.519531,-16.30078 2.270607,-8.28246 0.740051,-31.2215 12.373047,-37.11914 8.900059,-4.51211 24.448208,7.39938 28.503908,9.15039 13.56383,5.85605 15.01318,4.17831 16.13867,3.98633 -1.63344,1.90659 -12.42568,4.57237 -16.88477,5.87305 -7.45554,2.3343 -15.49499,5.46839 -20.390621,11.55664 -7.729438,9.61239 -10.821264,23.02509 -10.910156,35.35937 -0.0311,4.31497 1.342207,8.76864 3.638672,12.42188 1.534304,2.44079 4.019844,4.20067 6.425781,5.78906 2.823632,1.86416 6.846194,1.84571 9.210934,4.26563 4.39544,4.49797 6.35995,15.59209 7.53125,17.29882 2.24935,3.27759 1.20557,-11.91456 -0.85937,-17.31054 -1.24774,-3.26052 -3.6289,-6.29662 -6.5957,-8.13672 -8.239716,-5.1105 -8.814622,-7.31448 -9.832036,-12.52344 -1.65233,-8.4596 2.545488,-17.55912 7.140626,-24.85156 2.47512,-3.928 6.32246,-7.05756 10.41601,-9.24805 5.54729,-2.96837 13.03598,-4.85827 18.25586,-4.79101 -9.40157,4.68824 -19.0723,20.47483 -21.00781,33.51757 -1.94291,13.09252 3.26156,27.17965 10.40821,38.32032 2.88562,4.4983 7.73091,7.51481 12.31054,10.26953 9.02505,5.42869 28.83013,13.3503 29.25,11.94922 0.49334,-1.64624 -17.97621,-9.60467 -24.84765,-16.89063 -4.90904,-5.20518 -9.65746,-13.89822 -11.00782,-18.42773 -1.84083,-6.17468 -4.14713,-19.90454 -0.91211,-29.0293 2.97755,-8.39853 13.23361,-20.10689 17.48243,-20.22266 3.21291,-0.0875 17.80764,-5.47032 -0.79102,13.39063 -8.9405,14.17887 -8.74061,22.69874 -4.48633,33.45508 4.37406,13.46221 23.62191,17.2842 36.88477,13.38086 7.75731,-3.01999 16.94313,-8.0096 22.79297,-14.46289 3.37768,-3.72613 5.16185,-7.2981 6.15625,-12.91407 3.8518,-9.71119 -16.17156,-24.63908 -9.07227,-11.95898 6.29435,12.66863 -10.14752,24.25569 -22.51367,27.71094 -21.89753,5.41216 -23.11127,-13.10639 -18.1875,-22.51172 5.82639,-13.72352 10.9862,-17.1727 20.58008,-26.89649 11.43739,-8.90995 22.57994,-20.15937 38.62109,-19.85742 v 0.0215 c 0.15066,-0.007 0.29747,-0.005 0.44727,-0.01 0.15026,0.005 0.29809,0.003 0.44921,0.01 v -0.0215 c 16.04055,-0.30139 27.18398,10.94768 38.6211,19.85742 9.59388,9.72379 14.75173,13.17297 20.57812,26.89649 4.92377,9.40533 3.71003,27.92388 -18.1875,22.51172 -12.36615,-3.45525 -28.80802,-15.04231 -22.51367,-27.71094 7.09929,-12.6801 -12.92406,2.24779 -9.07226,11.95898 0.9944,5.61597 2.77857,9.18794 6.15625,12.91407 5.84984,6.45329 15.03566,11.4429 22.79296,14.46289 13.26287,3.90334 32.51071,0.0813 36.88477,-13.38086 4.25428,-10.75634 4.45417,-19.27621 -4.48633,-33.45508 -18.59866,-18.86095 -4.00392,-13.47813 -0.79101,-13.39063 4.24882,0.11577 14.50487,11.82413 17.48242,20.22266 3.23502,9.12476 0.92872,22.85462 -0.91211,29.0293 -1.35036,4.52951 -6.09877,13.22255 -11.00781,18.42773 -6.87144,7.28596 -25.341,15.24439 -24.84766,16.89063 0.41987,1.40108 20.22495,-6.52053 29.25,-11.94922 4.57963,-2.75472 9.42493,-5.77123 12.31055,-10.26953 7.14665,-11.14067 12.35111,-25.2278 10.4082,-38.32032 -1.93551,-13.04274 -11.60429,-28.82933 -21.00586,-33.51757 5.21988,-0.0673 12.70858,1.82264 18.25586,4.79101 4.09355,2.19049 7.9409,5.32005 10.41602,9.24805 4.59514,7.29244 8.79295,16.39196 7.14062,24.85156 -1.01741,5.20896 -1.59232,7.41294 -9.83203,12.52344 -2.9668,1.8401 -5.34796,4.8762 -6.5957,8.13672 -2.06494,5.39598 -3.11068,20.58813 -0.86133,17.31054 1.1713,-1.70673 3.13776,-12.80085 7.5332,-17.29882 2.36474,-2.41992 6.38731,-2.40147 9.21094,-4.26563 2.40594,-1.58839 4.89147,-3.34827 6.42578,-5.78906 2.29646,-3.65324 3.66782,-8.10691 3.63672,-12.42188 -0.0889,-12.33428 -3.17877,-25.74698 -10.9082,-35.35937 -4.89563,-6.08825 -12.93509,-9.22234 -20.39063,-11.55664 -4.45909,-1.30068 -15.25328,-3.96646 -16.88672,-5.87305 1.12549,0.19198 2.5768,1.86972 16.14063,-3.98633 4.0557,-1.75101 19.60189,-13.6625 28.50195,-9.15039 11.633,5.89764 10.10244,28.83668 12.37305,37.11914 1.22749,4.47751 5.45833,9.36344 5.51953,16.30078 0.0714,8.09749 -4.07735,17.98749 -2.99024,17.95899 0.73416,-0.0192 5.03715,-6.1742 6.9043,-11.33008 2.52728,-6.97874 2.59139,-13.82719 2.0332,-17.07422 -1.46536,-8.52413 0.73727,-34.13075 -3.94921,-44.50586 -6.38648,-14.13865 -16.23515,-18.11176 -27.36719,-19.79492 -17.23133,-2.60537 -37.72681,27.46962 -49.52539,16.74609 -9.61984,-4.85324 -11.96209,-19.91867 -15.29883,-28.47461 -0.43262,-20.64024 -9.06227,-15.36458 -8.22266,-36.90039 -1.35259,-16.699039 -11.58797,-33.413446 -29.37695,-37.037106 -4.40814,-0.393855 -9.2132,-0.54735 -13.99609,-0.232422 -2.29548,-0.151092 -4.5963,-0.204542 -6.85547,-0.16211 z"
       style="fill:#000000;stroke:none;stroke-width:0.1"
       inkscape:connector-curvature="0" />
    <g
       id="g27"
       transform="matrix(0.12016571,0,0,0.12016571,284.47684,-0.51738014)"
       style="fill:#000000;stroke:none">
      <title
         id="title22">Layer 1</title>
      <g
         transform="matrix(1.25,0,0,-1.25,0,688.225)"
         id="g3159">
        <g
           transform="scale(0.24)"
           id="g3161">
          <path
             d="m -2266.9708,-1363.5129 c -152.9412,-163.9303 -393.4907,-144.3638 -506.2311,-111.8351 -100.5649,28.9976 -300.493,216.1552 -186.1226,469.6241 107.3392,237.87647 353.7509,4.1199 785.9824,-172.8285 0,0 56.8721,-23.6225 -93.6287,-184.9605"
             id="path3163"
             inkscape:connector-curvature="0"
             sodipodi:nodetypes="ccccc"
             style="fill:#ffffff;stroke-width:0.62046868" />
        </g>
      </g>
    </g>
    <g
       id="left_wing"
       transform="matrix(0.37052393,0.33393342,-0.33393342,0.37052393,166.98658,-71.93359)"
       style="fill:#000000;stroke:none">
      <g
         transform="translate(-10.416247,59.461912)"
         style="fill:#000000"
         id="g281">
        <g
           style="fill:#000000"
           id="g283">
          <path
             sodipodi:nodetypes="cccccc"
             style="fill:#000000;stroke:#000000;stroke-width:4;stroke-linecap:round;stroke-linejoin:round"
             inkscape:connector-curvature="0"
             id="path285"
             d="M 310.94308,281.7479 C 263.24308,273.0779 193.34,305.41 193.34,305.41 c -46.54,-35.25 -91.66,0 -91.66,0 C 58.664,254.64 -19.374907,351.64308 -19.374907,351.64308 -27.767247,195.53739 180.653,172.15 180.653,172.15 c 23.85,54.15 116.07,78.89 131.69,82.73" />
        </g>
        <g
           style="fill:#000000;stroke:#ffffff;stroke-width:4;stroke-linecap:round;stroke-linejoin:round;stroke-opacity:1"
           id="g287">
          <path
             style="fill:#000000;stroke:#ffffff;stroke-opacity:1"
             inkscape:connector-curvature="0"
             id="path289"
             d="m 101.93,301.59 c 0,0 -26.795,-58.73 76.48,-127.26" />
          <path
             style="fill:#000000;stroke:#ffffff;stroke-opacity:1"
             inkscape:connector-curvature="0"
             id="path291"
             d="m 193.81,302.46 c 0,0 -32,-61.56 -15,-128.05" />
        </g>
      </g>
      <g
         transform="translate(-8.3729627,11.679323)"
         style="fill:#ffffff;fill-opacity:1;stroke:#000000;stroke-width:3;stroke-linecap:round;stroke-linejoin:round;stroke-opacity:1"
         id="g293">
        <path
           sodipodi:nodetypes="cccc"
           style="fill:#ffffff;fill-opacity:1;stroke:#000000;stroke-width:1.42806268;stroke-opacity:1"
           inkscape:connector-curvature="0"
           id="path3222_1_"
           d="m -13.594869,421.63204 c -10.467846,-9.99005 -11.991275,-23.77005 -10.13352,-26.81183 1.86087,-3.03668 5.114205,-3.89878 7.267871,-1.92681 4.937545,4.83239 -7.012,7.31261 2.865649,28.73864 z" />
        <path
           d="m 109.505,369.43825 c -9.46294,-5.13638 -13.240171,-14.7362 -12.498252,-17.28246 0.745151,-2.5432 2.913754,-3.7958 4.844432,-2.79893 4.48694,2.5091 -3.611987,6.61706 7.65382,20.08139 z"
           id="path4877"
           inkscape:connector-curvature="0"
           style="fill:#ffffff;fill-opacity:1;stroke:#000000;stroke-width:1.06262517;stroke-opacity:1"
           sodipodi:nodetypes="cccc" />
        <path
           sodipodi:nodetypes="cccc"
           style="fill:#ffffff;fill-opacity:1;stroke:#000000;stroke-width:1.06262517;stroke-opacity:1"
           inkscape:connector-curvature="0"
           id="path4879"
           d="m 201.78553,367.9558 c -9.46294,-5.13638 -13.24018,-14.7362 -12.49826,-17.28246 0.74515,-2.5432 2.91376,-3.7958 4.84444,-2.79893 4.48694,2.5091 -3.61199,6.61706 7.65382,20.08139 z" />
        <path
           d="m 192.69855,212.79282 c -10.48438,-1.69756 -16.80022,3.83147 -16.81057,6.38895 -0.006,2.55699 1.71049,4.94353 3.83514,5.33185 4.99206,0.74439 -1.5808,-7.69974 12.97543,-11.7208 z"
           id="path4881"
           inkscape:connector-curvature="0"
           style="fill:#ffffff;fill-opacity:1;stroke:#000000;stroke-width:1.04196298;stroke-opacity:1"
           sodipodi:nodetypes="cccc" />
      </g>
    </g>
    <g
       style="fill:#000000;stroke:none"
       transform="matrix(-0.12016571,0,0,0.12016571,140.15688,-0.51738014)"
       id="g4933">
      <title
         id="title4925">Layer 1</title>
      <g
         id="g4931"
         transform="matrix(1.25,0,0,-1.25,0,688.225)">
        <g
           id="g4929"
           transform="scale(0.24)">
          <path
             style="fill:#ffffff;stroke-width:0.62046868"
             sodipodi:nodetypes="ccccc"
             inkscape:connector-curvature="0"
             id="path4927"
             d="m -2266.9708,-1363.5129 c -152.9412,-163.9303 -393.4907,-144.3638 -506.2311,-111.8351 -100.5649,28.9976 -300.493,216.1552 -186.1226,469.6241 107.3392,237.87647 353.7509,4.1199 785.9824,-172.8285 0,0 56.8721,-23.6225 -93.6287,-184.9605" />
        </g>
      </g>
    </g>
    <g
       style="fill:#000000;stroke:none"
       transform="matrix(-0.37052393,0.33393342,0.33393342,0.37052393,257.64714,-71.93359)"
       id="g4957">
      <g
         id="g4945"
         style="fill:#000000"
         transform="translate(-10.416247,59.461912)">
        <g
           id="g4937"
           style="fill:#000000">
          <path
             d="M 310.94308,281.7479 C 263.24308,273.0779 193.34,305.41 193.34,305.41 c -46.54,-35.25 -91.66,0 -91.66,0 C 58.664,254.64 -19.374907,351.64308 -19.374907,351.64308 -27.767247,195.53739 180.653,172.15 180.653,172.15 c 23.85,54.15 116.07,78.89 131.69,82.73"
             id="path4935"
             inkscape:connector-curvature="0"
             style="fill:#000000;stroke:#000000;stroke-width:4;stroke-linecap:round;stroke-linejoin:round"
             sodipodi:nodetypes="cccccc" />
        </g>
        <g
           id="g4943"
           style="fill:#000000;stroke:#ffffff;stroke-width:4;stroke-linecap:round;stroke-linejoin:round;stroke-opacity:1">
          <path
             d="m 101.93,301.59 c 0,0 -26.795,-58.73 76.48,-127.26"
             id="path4939"
             inkscape:connector-curvature="0"
             style="fill:#000000;stroke:#ffffff;stroke-opacity:1" />
          <path
             d="m 193.81,302.46 c 0,0 -32,-61.56 -15,-128.05"
             id="path4941"
             inkscape:connector-curvature="0"
             style="fill:#000000;stroke:#ffffff;stroke-opacity:1" />
        </g>
      </g>
      <g
         id="g4955"
         style="fill:#ffffff;fill-opacity:1;stroke:#000000;stroke-width:3;stroke-linecap:round;stroke-linejoin:round;stroke-opacity:1"
         transform="translate(-8.3729627,11.679323)">
        <path
           d="m -13.594869,421.63204 c -10.467846,-9.99005 -11.991275,-23.77005 -10.13352,-26.81183 1.86087,-3.03668 5.114205,-3.89878 7.267871,-1.92681 4.937545,4.83239 -7.012,7.31261 2.865649,28.73864 z"
           id="path4947"
           inkscape:connector-curvature="0"
           style="fill:#ffffff;fill-opacity:1;stroke:#000000;stroke-width:1.42806268;stroke-opacity:1"
           sodipodi:nodetypes="cccc" />
        <path
           sodipodi:nodetypes="cccc"
           style="fill:#ffffff;fill-opacity:1;stroke:#000000;stroke-width:1.06262517;stroke-opacity:1"
           inkscape:connector-curvature="0"
           id="path4949"
           d="m 109.505,369.43825 c -9.46294,-5.13638 -13.240171,-14.7362 -12.498252,-17.28246 0.745151,-2.5432 2.913754,-3.7958 4.844432,-2.79893 4.48694,2.5091 -3.611987,6.61706 7.65382,20.08139 z" />
        <path
           d="m 201.78553,367.9558 c -9.46294,-5.13638 -13.24018,-14.7362 -12.49826,-17.28246 0.74515,-2.5432 2.91376,-3.7958 4.84444,-2.79893 4.48694,2.5091 -3.61199,6.61706 7.65382,20.08139 z"
           id="path4951"
           inkscape:connector-curvature="0"
           style="fill:#ffffff;fill-opacity:1;stroke:#000000;stroke-width:1.06262517;stroke-opacity:1"
           sodipodi:nodetypes="cccc" />
        <path
           sodipodi:nodetypes="cccc"
           style="fill:#ffffff;fill-opacity:1;stroke:#000000;stroke-width:1.04196298;stroke-opacity:1"
           inkscape:connector-curvature="0"
           id="path4953"
           d="m 192.69855,212.79282 c -10.48438,-1.69756 -16.80022,3.83147 -16.81057,6.38895 -0.006,2.55699 1.71049,4.94353 3.83514,5.33185 4.99206,0.74439 -1.5808,-7.69974 12.97543,-11.7208 z" />
      </g>
    </g>
  </g>
</svg>
